<svg width="102" height="43" viewBox="0 0 102 43" fill="none" xmlns="http://www.w3.org/2000/svg">
<path d="M97.1604 21.6529C97.1368 25.326 94.1422 28.3037 90.4717 28.3037C86.8013 28.3037 83.845 25.326 83.8686 21.6529C83.8922 17.9797 86.8869 15.0021 90.5573 15.0021C94.2278 15.0021 97.1841 17.9797 97.1604 21.6529Z" fill="#F5CE5C"/>
<path d="M97.1604 21.6529C97.1841 17.9797 94.2278 15.0021 90.5573 15.0021C86.8869 15.0021 83.8922 17.9797 83.8686 21.6529L83.8752 21.9951C84.0306 25.509 86.9162 28.3034 90.4717 28.3037C94.0275 28.3037 96.949 25.5092 97.1496 21.9951L97.1604 21.6529ZM100.885 21.6533C100.848 27.3809 96.1776 32.029 90.4474 32.029C84.7173 32.0288 80.1064 27.3807 80.143 21.6533C80.1799 15.9256 84.8506 11.2768 90.5809 11.2765C96.3113 11.2765 100.922 15.9255 100.885 21.6533Z" fill="#F5CE5C" fill-opacity="0.42"/>
<path d="M89.2747 4.15675C89.2599 6.45239 87.3423 8.24886 85.1535 8.95526C79.8033 10.6819 75.9095 15.6971 75.8713 21.6148C75.8323 27.6782 79.8533 32.7933 85.3865 34.3949C87.3681 34.9684 89.066 36.5904 89.0527 38.6568C89.0394 40.7233 87.3534 42.3985 85.2869 42.3985H20.8489C9.41169 42.3985 0.199629 33.127 0.273209 21.69L0.279524 20.7085C0.353104 9.27151 9.68446 0 21.1217 0L85.1446 0C87.4403 0 89.2894 1.86104 89.2747 4.15675Z" fill="#DAE2FF"/>
<path d="M85.3587 0.00585939C87.5542 0.117331 89.289 1.93287 89.2747 4.15675L89.2678 4.37013C89.1401 6.56336 87.2739 8.27085 85.1535 8.95526L84.6565 9.12697C79.5639 10.9965 75.9083 15.8819 75.8713 21.6148L75.8792 22.1807C76.0849 27.9945 80.0266 32.8432 85.3865 34.3949C87.3681 34.9684 89.066 36.5904 89.0527 38.6568L89.0462 38.8497C88.9331 40.8266 87.2887 42.3985 85.2869 42.3985L85.2864 38.6739C85.2913 38.6739 85.2943 38.6731 85.2952 38.6729L85.2971 38.672C85.2996 38.6709 85.3062 38.6676 85.3137 38.6602C85.3213 38.6528 85.3253 38.6462 85.3264 38.6436C85.3268 38.6427 85.3273 38.6421 85.3274 38.6417C85.3275 38.6413 85.3272 38.6397 85.3274 38.6368C85.327 38.6358 85.326 38.6343 85.3255 38.6329C85.3178 38.6147 85.2904 38.5583 85.2151 38.4757C85.0489 38.2933 84.7433 38.0864 84.3508 37.9727C77.2539 35.9185 72.0958 29.3606 72.1458 21.5909C72.1947 14.0165 77.1763 7.6154 84.009 5.41017C84.559 5.23267 85.0102 4.93286 85.2815 4.63673C85.5339 4.36107 85.5487 4.19299 85.5491 4.13282C85.5506 3.90385 85.3737 3.72573 85.1448 3.72559H21.1214C11.7323 3.72575 4.06464 11.3435 4.00421 20.7325L3.99836 21.7139C3.93807 31.0843 11.4784 38.6739 20.8489 38.6739L20.8489 42.3985L20.3148 42.3917C9.30387 42.1129 0.484882 33.2371 0.276678 22.2247L0.273209 21.69L0.279524 20.7085C0.353104 9.27151 9.68446 0 21.1217 0L85.1446 0L85.3587 0.00585939ZM85.2864 38.6739L85.2869 42.3985H20.8489L20.8489 38.6739H85.2864Z" fill="#7491FF"/>
</svg>
